<?xml version="1.0" encoding="UTF-8" standalone="no"?>
<svg
   width="200"
   height="200"
   viewBox="0 0 52.916665 52.916668"
   version="1.1"
   id="svg1332"
   sodipodi:docname="contact_white.svg"
   inkscape:version="1.1.2 (0a00cf5339, 2022-02-04)"
   xmlns:inkscape="http://www.inkscape.org/namespaces/inkscape"
   xmlns:sodipodi="http://sodipodi.sourceforge.net/DTD/sodipodi-0.dtd"
   xmlns="http://www.w3.org/2000/svg"
   xmlns:svg="http://www.w3.org/2000/svg"
   xmlns:rdf="http://www.w3.org/1999/02/22-rdf-syntax-ns#"
   xmlns:cc="http://creativecommons.org/ns#"
   xmlns:dc="http://purl.org/dc/elements/1.1/">
  <sodipodi:namedview
     id="namedview7"
     pagecolor="#ffffff"
     bordercolor="#666666"
     borderopacity="1.0"
     inkscape:pageshadow="2"
     inkscape:pageopacity="0.0"
     inkscape:pagecheckerboard="0"
     showgrid="false"
     inkscape:zoom="2.8567114"
     inkscape:cx="133.54517"
     inkscape:cy="134.24527"
     inkscape:window-width="1850"
     inkscape:window-height="1016"
     inkscape:window-x="0"
     inkscape:window-y="0"
     inkscape:window-maximized="1"
     inkscape:current-layer="svg1332" />
  <defs
     id="defs1326" />
  <metadata
     id="metadata1329">
    <rdf:RDF>
      <cc:Work
         rdf:about="">
        <dc:format>image/svg+xml</dc:format>
        <dc:type
           rdf:resource="http://purl.org/dc/dcmitype/StillImage" />
      </cc:Work>
    </rdf:RDF>
  </metadata>
  <path
     style="fill:#ffffff;stroke-width:0.264583"
     d="m 11.513784,47.230669 c -1.49058,-0.522706 -2.9355705,-2.220952 -3.2880005,-3.864293 -0.39543,-1.843825 -0.38859,-32.004093 0.008,-33.8518223 0.36757,-1.713897 1.9777705,-3.498633 3.5449205,-3.929163 0.71486,-0.19639 6.27472,-0.291227 17.13177,-0.292224 l 16.073443,-0.0015 V 22.489583 39.6875 h -1.32292 -1.32292 v 2.645833 2.645834 h 1.32292 1.32292 V 46.302083 47.625 L 28.778184,47.61338 c -13.20334,-0.0095 -16.40181,-0.08037 -17.26407,-0.382744 z M 39.691917,42.333358 V 39.687525 H 25.921554 12.151194 l -0.63867,0.638672 c -1.18585,1.185847 -1.18585,2.828476 0,4.014322 l 0.63867,0.638673 h 13.77036 13.770363 z M 27.454934,37.053304 42.337747,37.041694 V 22.489608 7.9375247 H 27.371394 c -9.75886,0 -15.14347,0.09479 -15.47539,0.272427 -1.29412,0.692595 -1.30826,0.862131 -1.30826,15.6905473 v 13.872586 l 0.99219,-0.354084 c 0.78238,-0.279207 4.13938,-0.35654 15.875,-0.365697 z m -8.6651,-4.169185 c 0,-0.103854 0.56313,-1.891779 1.2514,-3.973166 l 1.2514,-3.784343 6.59674,0.07056 6.596743,0.07056 1.15057,3.439584 c 0.63282,1.891771 1.21892,3.654515 1.30245,3.917209 0.13529,0.425466 2e-5,0.46881 -1.23862,0.396875 l -1.39051,-0.08075 -0.83682,-2.513542 -0.83683,-2.513541 -4.795123,-0.07207 -4.79513,-0.07207 -0.84062,2.651757 -0.84063,2.651758 h -1.28751 c -0.70813,0 -1.28751,-0.08497 -1.28751,-0.188823 z m 7.3171,-10.766486 c -2.86878,-1.062228 -4.23876,-4.51834 -2.86132,-7.218357 1.9678,-3.857206 7.105373,-3.903232 9.114303,-0.08165 0.93995,1.788075 0.8869,3.312941 -0.17852,5.130932 -1.17421,2.003642 -3.896223,2.975621 -6.074463,2.169078 z m 3.55117,-3.047256 c 0.606553,-0.606555 0.773393,-1.010486 0.773393,-1.872435 0,-3.093735 -4.425753,-3.678653 -5.177293,-0.684245 -0.66387,2.645066 2.48654,4.474036 4.4039,2.55668 z"
     id="path172984" />
</svg>
