<?xml version="1.0" encoding="UTF-8" standalone="no"?>
<svg
   width="200"
   height="200"
   viewBox="0 0 52.916665 52.916668"
   version="1.1"
   id="svg1332"
   sodipodi:docname="culture.svg"
   inkscape:version="1.1.2 (0a00cf5339, 2022-02-04)"
   xmlns:inkscape="http://www.inkscape.org/namespaces/inkscape"
   xmlns:sodipodi="http://sodipodi.sourceforge.net/DTD/sodipodi-0.dtd"
   xmlns="http://www.w3.org/2000/svg"
   xmlns:svg="http://www.w3.org/2000/svg"
   xmlns:rdf="http://www.w3.org/1999/02/22-rdf-syntax-ns#"
   xmlns:cc="http://creativecommons.org/ns#"
   xmlns:dc="http://purl.org/dc/elements/1.1/">
  <sodipodi:namedview
     id="namedview7"
     pagecolor="#ffffff"
     bordercolor="#666666"
     borderopacity="1.0"
     inkscape:pageshadow="2"
     inkscape:pageopacity="0.0"
     inkscape:pagecheckerboard="0"
     showgrid="false"
     inkscape:zoom="2.8567114"
     inkscape:cx="133.54517"
     inkscape:cy="134.24527"
     inkscape:window-width="1850"
     inkscape:window-height="1016"
     inkscape:window-x="0"
     inkscape:window-y="0"
     inkscape:window-maximized="1"
     inkscape:current-layer="svg1332" />
  <defs
     id="defs1326" />
  <metadata
     id="metadata1329">
    <rdf:RDF>
      <cc:Work
         rdf:about="">
        <dc:format>image/svg+xml</dc:format>
        <dc:type
           rdf:resource="http://purl.org/dc/dcmitype/StillImage" />
      </cc:Work>
    </rdf:RDF>
  </metadata>
  <path
     style="fill:#000000;stroke-width:0.0887349"
     d="M 24.38889,49.091943 C 20.872236,48.728191 17.540443,47.615835 14.638261,45.836593 11.715087,44.04448 8.8991149,41.228507 7.1070024,38.305332 3.3642385,32.200387 2.7426685,24.652525 5.4324162,17.970364 c 1.40889,-3.500122 3.9340022,-6.889141 6.8885018,-9.2452463 1.779225,-1.4188635 4.336001,-2.8496248 6.477661,-3.624868 3.344396,-1.2106127 7.22331,-1.615254 10.781315,-1.1246901 4.637884,0.6394559 9.177532,2.837355 12.546083,6.0742644 3.772774,3.625339 6.096992,8.182998 6.857395,13.446981 0.204579,1.416227 0.203037,4.553404 -0.003,5.945249 -0.61935,4.185426 -2.041026,7.581387 -4.569179,10.914416 -0.803098,1.058776 -2.864395,3.142401 -3.916959,3.959385 -3.300242,2.561605 -7.14946,4.164354 -11.269354,4.692371 -1.047264,0.134221 -3.874627,0.183164 -4.836063,0.08371 z m 3.948712,-1.860391 c 4.253254,-0.441718 7.999229,-1.967065 11.224988,-4.570776 0.75355,-0.608236 2.320502,-2.136379 2.840516,-2.770165 l 0.23662,-0.288389 h -0.362829 -0.362828 v -0.724001 c 0,-0.707159 -0.0082,-0.734938 -0.35494,-1.194117 l -0.354941,-0.470115 v -0.829384 -0.829384 l -0.307265,-0.297812 c -0.219085,-0.212346 -0.323503,-0.406092 -0.363844,-0.67511 -0.05016,-0.334444 -0.0109,-0.461332 0.345685,-1.117172 l 0.402266,-0.739873 -0.73915,-1.298604 -0.73915,-1.298602 0.07568,-0.65357 c 0.137849,-1.190348 0.176666,-1.108059 -0.551494,-1.169106 -0.550126,-0.04612 -0.672227,-0.08935 -0.913759,-0.323443 -0.374046,-0.36254 -0.974505,-0.38504 -1.29079,-0.04837 -0.193404,0.205871 -0.267969,0.221838 -1.03592,0.221838 -0.49252,0 -0.827516,0.03593 -0.827516,0.08873 0,0.04881 -0.196806,0.08873 -0.437345,0.08873 h -0.43734 l -0.982417,-1.121756 -0.982417,-1.121758 v -0.913169 c 0,-0.835238 0.01516,-0.917977 0.177471,-0.969496 0.111168,-0.03528 0.177472,-0.13426 0.177472,-0.264929 0,-0.11473 0.02426,-0.271762 0.05386,-0.348959 0.04173,-0.108741 -0.006,-0.140361 -0.211964,-0.140361 -0.233787,0 -0.272879,-0.0376 -0.32437,-0.312082 -0.0322,-0.171646 -0.03506,-0.350087 -0.0063,-0.396537 0.02871,-0.04646 0.529781,-0.4275 1.113493,-0.846777 l 1.061299,-0.762322 v -0.59536 -0.595361 l 0.553209,-0.304128 c 0.51212,-0.28154 0.603765,-0.302405 1.233869,-0.280925 0.573911,0.01956 0.748085,-0.01078 1.110574,-0.193336 0.341821,-0.17217 0.629921,-0.229078 1.405999,-0.277729 0.536848,-0.03365 1.045965,-0.08125 1.131372,-0.105776 0.137279,-0.03942 0.155286,0.02696 0.155286,0.572381 v 0.616966 l 0.973021,0.241394 c 0.535162,0.132767 1.01922,0.297063 1.075685,0.365099 0.05646,0.06803 0.197605,0.123705 0.313639,0.123705 0.180688,0 0.210973,-0.04321 0.210973,-0.301079 0,-0.350386 0.100181,-0.408802 0.701113,-0.408802 0.352012,0 0.497771,0.05773 0.896119,0.354942 l 0.475727,0.354939 h 0.871326 c 0.701371,0 0.871324,-0.02505 0.871324,-0.128464 0,-0.07065 -0.123569,-0.469964 -0.274597,-0.88735 l -0.274605,-0.758882 h -0.551785 c -0.49635,0 -0.577218,-0.02654 -0.804944,-0.264242 -0.19903,-0.207742 -0.261848,-0.369013 -0.293794,-0.754247 -0.02235,-0.269503 -0.05763,-0.490007 -0.07841,-0.490007 -0.02078,0 -0.150762,0.05842 -0.288843,0.129828 -0.202513,0.104721 -0.28165,0.242838 -0.40926,0.714264 l -0.158204,0.584438 -0.373442,-0.366503 c -0.314201,-0.308365 -0.381988,-0.438683 -0.427328,-0.821512 -0.04907,-0.414284 -0.09973,-0.496665 -0.566106,-0.920463 -0.477053,-0.433505 -0.543823,-0.465737 -0.972687,-0.469532 l -0.460473,-0.0041 0.134806,0.395637 c 0.117569,0.345044 0.207155,0.436095 0.700594,0.71204 0.588182,0.328932 0.767545,0.498848 0.589299,0.558265 -0.05745,0.01916 -0.104451,0.188113 -0.104451,0.375478 0,0.31012 -0.02761,0.34978 -0.308052,0.442332 -0.240857,0.07948 -0.360402,0.07615 -0.548042,-0.01531 -0.387143,-0.188691 -0.364952,-0.338807 0.05008,-0.338807 0.199284,0 0.362334,-0.0167 0.362334,-0.03712 0,-0.02041 0.0218,-0.09392 0.04844,-0.163367 0.03278,-0.08545 -0.209507,-0.295712 -0.749723,-0.650586 -0.50519,-0.331868 -0.816739,-0.597618 -0.848755,-0.723985 -0.06655,-0.262693 -0.141255,-0.252066 -0.443145,0.06303 -0.222544,0.232285 -0.294414,0.256836 -0.620881,0.212089 l -0.369205,-0.0506 -0.49932,0.653079 c -0.274625,0.359194 -0.53864,0.757274 -0.586702,0.884621 -0.06043,0.160143 -0.175032,0.24907 -0.371623,0.28839 -0.521111,0.104228 -1.313154,0.06052 -1.628496,-0.08986 -0.284431,-0.135635 -0.313441,-0.187522 -0.384484,-0.687698 -0.07757,-0.546073 1.78e-4,-1.011707 0.189648,-1.136245 0.193295,-0.127034 1.051438,-0.178038 1.499481,-0.08911 0.253608,0.05034 0.470672,0.08224 0.482364,0.0709 0.01172,-0.01137 0.04626,-0.145556 0.07679,-0.298268 0.04929,-0.246453 0.02914,-0.284282 -0.179257,-0.336587 -0.160487,-0.04028 -0.222341,-0.104814 -0.195459,-0.203914 0.02163,-0.07974 0.06364,-0.289667 0.09335,-0.466497 0.05354,-0.318641 0.05874,-0.322045 0.581728,-0.381216 0.522497,-0.05911 0.531338,-0.06489 0.896583,-0.585579 0.202885,-0.289234 0.453713,-0.553544 0.557393,-0.587358 0.103677,-0.03382 0.501636,-0.05549 0.884345,-0.04819 l 0.695836,0.0133 -0.06253,-0.464489 c -0.03439,-0.255469 -0.07234,-0.475475 -0.08431,-0.488902 -0.01198,-0.01343 -0.206072,0.05459 -0.431323,0.151139 L 39.522895,13.41706 39.348096,13.0219 c -0.139034,-0.314311 -0.219765,-0.395162 -0.394574,-0.395162 -0.173344,0 -0.232468,-0.05777 -0.27984,-0.273466 -0.07717,-0.351371 0.177798,-0.639969 0.747028,-0.845546 0.395868,-0.142969 0.842858,-0.514554 0.789386,-0.656225 -0.01447,-0.03837 -0.345771,-0.326302 -0.736204,-0.639869 C 36.52869,7.846272 32.976511,6.3294112 29.091896,5.7782831 28.078027,5.6344395 24.991594,5.6344701 23.945263,5.7783335 20.756642,6.2167447 17.76221,7.3076192 15.204856,8.9624687 l -0.931717,0.6029091 0.585645,0.044361 c 0.322102,0.024408 0.641549,0.089045 0.709882,0.1436667 0.06832,0.05461 0.330013,0.1475152 0.581519,0.2064473 0.312411,0.073203 0.470819,0.1588892 0.499993,0.2704572 0.03584,0.137049 0.151396,0.16806 0.71866,0.192861 0.694507,0.03036 0.741179,0.0074 0.583685,-0.286855 -0.07661,-0.1431561 -0.18933,-0.1716371 -0.679264,-0.1716371 -0.550267,0 -0.579117,-0.00988 -0.456208,-0.1552859 0.256788,-0.30392 0.109,-0.4553938 -0.472179,-0.4839574 l -0.534552,-0.02629 0.574961,-0.4214921 c 0.549223,-0.402624 0.601292,-0.4214922 1.163206,-0.4214922 h 0.588247 l 0.281458,0.3993076 c 0.269728,0.3826646 0.299988,0.3993086 0.726011,0.3993086 0.376712,0 0.487758,-0.041882 0.727673,-0.2744091 0.247968,-0.2403402 0.307585,-0.2613145 0.480186,-0.1689401 0.195001,0.1043564 0.193042,0.1095725 -0.186449,0.4962459 -0.358649,0.3654341 -0.414321,0.390778 -0.858444,0.390778 h -0.474926 l 0.02753,0.3327567 0.02753,0.332757 0.650585,0.02622 c 0.579779,0.02336 0.655446,0.0077 0.695284,-0.144725 0.0344,-0.131539 0.145676,-0.180645 0.482741,-0.213033 0.504738,-0.048503 0.495672,-0.04294 0.536377,-0.3290619 0.02418,-0.169969 -0.01717,-0.228871 -0.190977,-0.2721014 -0.156594,-0.03895 -0.213507,-0.1056353 -0.193515,-0.2267466 0.04876,-0.2953864 0.284587,-0.3934807 0.942541,-0.3920538 0.85392,0.00191 0.949591,0.080902 0.514744,0.4253055 -0.298605,0.2364996 -0.341249,0.313412 -0.306196,0.5522436 0.04349,0.2963016 0.06131,0.3085216 0.574383,0.3938336 l 0.334032,0.05554 -0.057,-0.48505 -0.057,-0.4850489 0.432853,-0.2185203 c 0.270134,-0.1363717 0.67659,-0.2427487 1.081192,-0.2829679 0.639698,-0.063589 0.661266,-0.058792 1.619416,0.3600496 l 0.971081,0.4244983 v 0.3765755 c 0,0.3462697 0.02142,0.3812827 0.266205,0.4350457 0.29535,0.06487 0.312672,0.111507 0.163228,0.439499 -0.09105,0.199848 -0.156185,0.226013 -0.562574,0.226013 -0.457143,0 -0.460221,0.0019 -0.576168,0.35321 -0.09643,0.292196 -0.148702,0.345105 -0.302593,0.306289 -0.102306,-0.02581 -0.545313,-0.137334 -0.984452,-0.247842 l -0.798427,-0.200923 0.399121,-0.231511 c 0.219517,-0.12733 0.548861,-0.301932 0.731876,-0.388005 0.183018,-0.08607 0.332757,-0.185483 0.332757,-0.22091 0,-0.03542 -0.125212,-0.169771 -0.278248,-0.298544 -0.197866,-0.1664909 -0.345267,-0.2213961 -0.510226,-0.190053 -0.127587,0.024236 -0.437146,0.069283 -0.687904,0.1001 -0.345167,0.04241 -0.516705,0.119463 -0.706116,0.317164 -0.154259,0.161011 -0.379224,0.281774 -0.586711,0.314953 -0.34342,0.05491 -0.458934,0.255931 -0.20342,0.353981 0.211633,0.0812 0.155371,0.182923 -0.133101,0.240618 -0.156134,0.03123 -0.266205,0.109197 -0.266205,0.188562 0,0.09039 -0.08606,0.13532 -0.259155,0.13532 -0.215802,0 -0.268937,-0.04453 -0.317625,-0.266205 -0.06723,-0.306049 -0.04377,-0.298822 -0.522115,-0.16089 -0.363273,0.104756 -2.143786,1.088359 -2.23381,1.234027 -0.02596,0.04197 -0.0047,0.234202 0.04729,0.427165 0.118993,0.441904 0.481484,0.675349 1.177945,0.758595 l 0.510228,0.06099 v 0.570395 c 0,0.552555 0.0071,0.570392 0.226745,0.570392 0.188521,0 0.2643,-0.08203 0.449515,-0.486588 0.21607,-0.471958 0.239264,-0.491439 0.771521,-0.647948 l 0.548757,-0.161358 0.02575,-0.725646 c 0.02488,-0.701051 0.03545,-0.73306 0.312538,-0.944394 0.305313,-0.232873 0.373965,-0.230562 1.424837,0.04795 l 0.343355,0.09101 -0.05823,0.438935 c -0.07692,0.579832 0.04508,0.620612 0.799915,0.267383 0.323436,-0.151355 0.603547,-0.275191 0.622473,-0.275191 0.01891,0 0.0344,0.260534 0.0344,0.578963 v 0.578962 l 0.39931,0.241191 c 0.372,0.224697 0.399306,0.266782 0.399306,0.6154 0,0.359695 -0.01375,0.378331 -0.354939,0.480552 -0.493728,0.147924 -0.464118,0.351718 0.08873,0.61066 0.378892,0.177462 0.443677,0.244464 0.443677,0.458845 0,0.309632 -0.120206,0.31867 -0.870123,0.06542 -0.460688,-0.155578 -0.549638,-0.218663 -0.549638,-0.389816 0,-0.112303 0.0599,-0.227181 0.133101,-0.255273 0.196558,-0.07543 0.168896,-0.470262 -0.03671,-0.524031 -0.11139,-0.02912 -0.183645,0.0085 -0.21001,0.109292 -0.05649,0.21604 -1.039936,0.39284 -1.039936,0.186957 0,-0.16413 -0.284309,-0.361279 -0.521001,-0.361279 -0.295429,0 -0.455083,0.145944 -0.455083,0.416006 0,0.168661 0.06081,0.212766 0.359126,0.260469 l 0.359124,0.05742 -0.192419,0.204819 c -0.179272,0.190826 -0.206688,0.195471 -0.401279,0.06797 -0.200051,-0.131081 -0.229524,-0.119194 -0.699115,0.28199 -0.269642,0.230364 -0.490258,0.468324 -0.490258,0.528802 0,0.06049 -0.249567,0.241916 -0.554595,0.403193 -0.731544,0.386793 -2.018182,1.624608 -2.020082,1.943427 -0.0016,0.311417 -0.0478,0.363396 -0.708519,0.801609 -0.317231,0.210396 -0.72652,0.524967 -0.909535,0.699046 -0.325202,0.309321 -0.332758,0.331211 -0.332758,0.964014 0,0.356126 -0.02157,0.647504 -0.04791,0.647504 -0.02636,0 -0.203722,-0.07949 -0.394169,-0.176651 -0.310837,-0.158578 -0.349057,-0.215315 -0.373586,-0.554595 l -0.02733,-0.377943 -1.172633,-0.02473 -1.172631,-0.02473 -0.711947,0.357962 c -0.664305,0.334004 -0.729247,0.392225 -0.970407,0.869959 -0.423895,0.839733 -0.496853,1.225424 -0.310125,1.639508 0.174485,0.386945 0.398638,0.509612 0.931224,0.509612 0.276698,0 0.494686,-0.09549 1.006754,-0.441034 0.359473,-0.24257 0.703529,-0.452207 0.76457,-0.465859 0.249521,-0.05581 0.238316,0.41123 -0.02103,0.876397 l -0.255094,0.457545 0.612471,0.103314 0.612472,0.103302 0.07698,0.947644 0.07697,0.947643 0.832727,0.128055 c 0.818611,0.12588 0.83532,0.124853 0.985498,-0.06062 0.08402,-0.103759 0.316723,-0.374921 0.51711,-0.602573 l 0.364341,-0.413913 0.629636,0.112528 c 0.57854,0.103395 0.64902,0.140339 0.868538,0.4553 0.205559,0.294935 0.274512,0.336171 0.494017,0.295447 0.140314,-0.02603 0.407157,-0.04733 0.592982,-0.04733 0.257523,0 0.350983,-0.04132 0.393015,-0.173747 0.05315,-0.167441 0.06658,-0.168296 0.370078,-0.02356 0.212747,0.10145 0.44094,0.344971 0.703292,0.750523 l 0.388359,0.600344 h 0.653203 0.6532 l 0.22919,0.421491 c 0.132313,0.24333 0.25487,0.649083 0.289939,0.959922 l 0.06076,0.538428 0.7668,0.283205 c 0.669099,0.247121 0.877141,0.2831 1.632787,0.282371 l 0.865987,-8.05e-4 0.269237,0.437566 c 0.210379,0.341905 0.350838,0.465192 0.642509,0.563942 0.3601,0.12192 0.372284,0.138348 0.34529,0.465475 -0.02056,0.249049 -0.152744,0.499663 -0.49781,0.943764 l -0.469829,0.604672 -0.116384,1.240463 -0.116371,1.240465 -0.361583,0.291003 c -0.317415,0.255458 -0.442362,0.296423 -1.02293,0.335372 -0.640889,0.04299 -0.666802,0.05373 -0.837681,0.347135 -0.168801,0.289834 -0.170515,0.331329 -0.04016,0.971317 l 0.136169,0.668549 -0.659336,0.843455 c -0.362636,0.4639 -0.736651,0.995003 -0.831147,1.18023 -0.135576,0.265751 -0.306102,0.404404 -0.808601,0.657457 -0.350236,0.176377 -0.818673,0.346566 -1.040975,0.378198 -0.323678,0.04605 -0.409618,0.09549 -0.431468,0.248203 -0.02143,0.149756 0.03096,0.203481 0.24402,0.250278 0.357735,0.07857 0.362065,0.369006 0.01055,0.705802 -0.246988,0.236632 -0.253488,0.26097 -0.122896,0.460277 0.101544,0.154972 0.219609,0.210435 0.447957,0.210435 0.308606,0 0.309824,0.0015 0.256908,0.332756 -0.174416,1.091576 -0.191561,1.009916 0.290738,1.384815 0.368719,0.286611 0.428831,0.373071 0.370166,0.532411 -0.06034,0.163892 -0.150601,0.193842 -0.651876,0.216305 l -0.581835,0.02607 -0.66483,-0.57983 C 22.097696,44.77783 21.872773,44.497364 21.505552,43.840155 l -0.459101,-0.821635 0.0603,-0.823667 0.0603,-0.823668 -0.360617,-0.477633 -0.360614,-0.477631 0.13016,-0.739607 c 0.167353,-0.950976 0.16904,-0.932546 -0.09142,-0.997921 l -0.221838,-0.05568 v -1.806296 -1.806296 l -0.64333,-0.441731 c -0.353832,-0.242951 -0.76272,-0.470724 -0.908646,-0.506161 -0.300039,-0.07286 -0.396872,-0.185914 -0.398837,-0.465633 -6.7e-4,-0.109022 -0.351484,-0.631801 -0.80365,-1.197923 -0.780076,-0.976682 -0.800642,-1.014313 -0.742835,-1.359428 0.0327,-0.195218 0.08427,-0.633976 0.11459,-0.97502 l 0.05513,-0.620079 0.517107,-0.355009 0.517105,-0.35501 -0.06188,-0.622142 c -0.03403,-0.342179 -0.107006,-0.651481 -0.162165,-0.687337 -0.05516,-0.03586 -0.304934,-0.06581 -0.555055,-0.06655 -0.84258,-0.0024 -0.956948,-0.06 -1.604037,-0.806245 l -0.603248,-0.695682 -0.709882,-0.167838 c -0.684055,-0.161731 -0.709878,-0.177128 -0.709878,-0.423245 0,-0.226241 -0.038,-0.261665 -0.332758,-0.310201 -0.246495,-0.04059 -0.332758,-0.02391 -0.332758,0.06434 0,0.159716 -0.08969,0.153598 -1.0238,-0.06984 l -0.801967,-0.191824 -0.375307,-0.565298 c -0.371379,-0.559381 -0.37381,-0.5682 -0.23213,-0.842173 l 0.143175,-0.276874 -0.579038,-0.853053 C 9.5760917,21.553463 9.4369134,21.270202 9.3914972,20.923444 9.3019587,20.239758 9.2682958,20.169197 9.0317519,20.169197 c -0.1662635,0 -0.2146446,0.04586 -0.2105692,0.199653 0.01562,0.590528 0.1716459,1.073809 0.5184245,1.606068 0.265548,0.407577 0.3681399,0.651757 0.3479294,0.828092 -0.015761,0.137541 -0.058611,0.240094 -0.095212,0.227893 -0.036601,-0.0122 -0.1825498,-0.02219 -0.3243229,-0.02219 -0.2279318,0 -0.3049712,-0.08052 -0.6655116,-0.695496 -0.4069984,-0.694206 -0.4077322,-0.696978 -0.4077322,-1.53766 v -0.8422 l -0.4436765,-0.207806 -0.4436765,-0.207807 -0.0027,-0.583793 c -0.0034,-0.707571 -0.043675,-0.651509 -0.5144478,0.713784 -0.829404,2.405363 -1.117874,4.165705 -1.117874,6.821682 0,2.115612 0.1241864,3.196829 0.574972,5.006043 0.3806426,1.527691 0.8028488,2.667065 1.5482138,4.178038 2.0648058,4.185688 5.2854521,7.415064 9.4664871,9.492147 3.388649,1.683436 7.498258,2.457412 11.075563,2.085894 z M 23.190967,16.726317 c 0,-0.239625 0.181909,-0.390734 0.326207,-0.270976 0.206106,0.171052 0.143187,0.4307 -0.104368,0.4307 -0.154465,0 -0.221839,-0.0485 -0.221839,-0.159724 z m 0.905098,-0.03549 c -0.201421,-0.201419 -0.118119,-0.337193 0.206874,-0.337193 0.196684,0 0.332376,-0.04956 0.364434,-0.133101 0.05713,-0.148889 0.564499,-0.186792 0.564499,-0.04218 0,0.05002 -0.09982,0.128885 -0.221834,0.175274 -0.122015,0.0464 -0.221839,0.140955 -0.221839,0.210147 0,0.227198 -0.500175,0.319007 -0.692134,0.127046 z m 12.267751,-1.987022 c 0.0646,-0.344325 0.169456,-0.475857 0.381435,-0.478455 0.061,-7.04e-4 0.109655,-0.0912 0.108107,-0.201011 -0.002,-0.139868 -0.121536,-0.271704 -0.399307,-0.440261 -0.402687,-0.244361 -0.467939,-0.391831 -0.306691,-0.693127 0.08548,-0.159699 0.663539,-0.339033 0.765189,-0.237384 0.02645,0.02645 0.08508,0.212669 0.130273,0.413797 0.108777,0.484118 0.472473,1.047334 0.794697,1.230653 0.314608,0.178987 0.316649,0.197641 0.04908,0.449006 -0.167908,0.15774 -0.354557,0.209817 -0.899806,0.251055 l -0.687953,0.05203 z m -1.433272,-0.09494 c -0.03273,-0.08529 0.04044,-0.318588 0.173402,-0.552926 0.257772,-0.454295 0.644433,-0.630315 1.014353,-0.46177 0.363474,0.16561 0.266655,0.477336 -0.261167,0.840861 -0.503093,0.346493 -0.836342,0.409012 -0.926588,0.173835 z m 10.380377,2.942699 c -0.131647,-0.268423 -0.270972,-0.488043 -0.309609,-0.488043 -0.03864,0 -0.07025,0.21962 -0.07025,0.488043 v 0.488043 h 0.309607 0.309609 z m -26.009103,0.07499 c 0.203487,-0.184151 0.217402,-0.563025 0.02069,-0.563025 -0.07788,0 -0.267547,0.06989 -0.421492,0.155287 -0.153941,0.08541 -0.284916,0.155286 -0.291054,0.155286 -0.006,0 -0.03878,0.08984 -0.07254,0.199653 -0.05606,0.182392 -0.0327,0.199655 0.270378,0.199655 0.184171,0 0.403938,-0.06532 0.494023,-0.146856 z m -1.229702,-0.784862 0.414924,-0.576778 h -0.337855 c -0.253144,0 -0.396053,0.06119 -0.569965,0.24402 -0.289705,0.304571 -0.407178,0.719669 -0.234596,0.828966 0.224929,0.14245 0.309595,0.0847 0.727492,-0.496208 z m 2.545532,0.280251 c 0,-0.164344 -0.07172,-0.229284 -0.34305,-0.310573 -0.446516,-0.13378 -0.455566,-0.132441 -0.455566,0.06743 0,0.352765 0.09866,0.450934 0.453173,0.450934 0.303088,0 0.345443,-0.02549 0.345443,-0.207792 z M 19.44435,16.747917 c 0.108472,-0.07597 0.197212,-0.215732 0.197212,-0.310573 0,-0.142022 -0.0626,-0.172438 -0.35494,-0.172438 -0.346487,0 -0.354939,0.0074 -0.354939,0.310572 0,0.352479 0.172693,0.410565 0.512667,0.172439 z M 8.58442,16.101216 c 0.1761093,-0.212035 0.3201983,-0.469589 0.3201983,-0.57234 0,-0.244922 -0.090466,-0.141439 -0.4494985,0.514185 -0.3268491,0.596857 -0.3204959,0.599713 0.1293002,0.05815 z m 11.845561,0.349331 c 0.09856,-0.06242 0.08643,-0.09736 -0.06116,-0.176351 -0.193993,-0.103818 -0.342699,7.05e-4 -0.239212,0.168174 0.06683,0.108142 0.139423,0.110111 0.300377,0.0082 z M 19.020418,15.86559 c 0,-0.12201 -0.03994,-0.221837 -0.08873,-0.221837 -0.04881,0 -0.08873,-0.0599 -0.08873,-0.133103 0,-0.307872 -1.324798,-0.06488 -1.451886,0.266306 -0.07773,0.202533 0.231886,0.298254 0.986028,0.304847 0.628562,0.0055 0.64333,5.37e-4 0.64333,-0.216213 z m 0.621144,0.09215 c 0,-0.01114 -0.07986,-0.09254 -0.177468,-0.180874 -0.173082,-0.156636 -0.177472,-0.154988 -0.177472,0.06667 0,0.183598 0.03411,0.218364 0.177472,0.180875 0.09761,-0.02553 0.177468,-0.05553 0.177468,-0.06667 z m -2.646773,-1.36807 c 0.03279,-0.0303 0.0866,-0.20181 0.119535,-0.381127 0.0567,-0.308651 0.04642,-0.327745 -0.192752,-0.358177 -0.224893,-0.02861 -0.740676,0.138374 -0.740676,0.239801 0,0.0215 0.06682,0.179213 0.148499,0.350487 0.127547,0.267468 0.180761,0.303839 0.377125,0.25776 0.125742,-0.02951 0.255461,-0.07844 0.288269,-0.108741 z m 25.445648,-0.889602 c 0.100934,-0.141745 0.183442,-0.291486 0.183352,-0.332757 -8.8e-5,-0.04127 -0.217873,-0.314621 -0.483967,-0.607447 l -0.483807,-0.53241 -0.0041,0.460739 c -0.0041,0.459181 -0.0056,0.461586 -0.447661,0.709881 -0.419764,0.235763 -0.519544,0.365621 -0.384608,0.500556 0.03254,0.03254 0.369229,0.05915 0.748205,0.05915 0.659288,0 0.696975,-0.01114 0.872562,-0.25772 z m -26.969422,-1.82756 c 0,-0.256166 -0.139397,-0.278667 -0.759323,-0.122568 -0.617416,0.155467 -0.517271,0.344406 0.182546,0.344406 0.556071,0 0.576777,-0.008 0.576777,-0.221838 z m -0.123523,-0.909534 c 0.06483,-0.08541 0.119147,-0.225165 0.120699,-0.310573 0.003,-0.169729 -0.285453,-0.20102 -0.906711,-0.09834 -0.294421,0.04866 -0.332758,0.08434 -0.332758,0.309597 0,0.250208 0.0087,0.254596 0.500447,0.254596 0.372548,0 0.530569,-0.03969 0.618323,-0.155287 z"
     id="path1328" />
</svg>
