<?xml version="1.0" encoding="UTF-8" standalone="no"?>
<svg
   width="200"
   height="200"
   viewBox="0 0 52.916665 52.916668"
   version="1.1"
   id="svg1332"
   sodipodi:docname="language.svg"
   inkscape:version="1.1.2 (0a00cf5339, 2022-02-04)"
   xmlns:inkscape="http://www.inkscape.org/namespaces/inkscape"
   xmlns:sodipodi="http://sodipodi.sourceforge.net/DTD/sodipodi-0.dtd"
   xmlns="http://www.w3.org/2000/svg"
   xmlns:svg="http://www.w3.org/2000/svg"
   xmlns:rdf="http://www.w3.org/1999/02/22-rdf-syntax-ns#"
   xmlns:cc="http://creativecommons.org/ns#"
   xmlns:dc="http://purl.org/dc/elements/1.1/">
  <sodipodi:namedview
     id="namedview7"
     pagecolor="#ffffff"
     bordercolor="#666666"
     borderopacity="1.0"
     inkscape:pageshadow="2"
     inkscape:pageopacity="0.0"
     inkscape:pagecheckerboard="0"
     showgrid="false"
     inkscape:zoom="4.04"
     inkscape:cx="132.05446"
     inkscape:cy="60.767327"
     inkscape:window-width="1850"
     inkscape:window-height="1016"
     inkscape:window-x="0"
     inkscape:window-y="0"
     inkscape:window-maximized="1"
     inkscape:current-layer="svg1332" />
  <defs
     id="defs1326" />
  <metadata
     id="metadata1329">
    <rdf:RDF>
      <cc:Work
         rdf:about="">
        <dc:format>image/svg+xml</dc:format>
        <dc:type
           rdf:resource="http://purl.org/dc/dcmitype/StillImage" />
      </cc:Work>
    </rdf:RDF>
  </metadata>
  <path
     style="fill:#000000;stroke-width:0.091291"
     d="M 23.983049,49.176761 C 21.20391,48.785367 18.464153,47.906603 15.999612,46.616119 11.368119,44.190976 7.9736255,40.671968 5.7987349,36.041063 4.2579506,32.760334 3.5230603,28.864968 3.7560395,25.213507 4.0216304,21.050879 5.0999906,17.755218 7.3602561,14.198368 9.2859677,11.167993 12.148879,8.5041493 15.584273,6.5461985 16.19704,6.1969631 18.21069,5.2971325 19.253432,4.9065795 21.762574,3.966797 24.555775,3.5874504 27.695819,3.7600228 c 4.054394,0.2228164 7.747041,1.4260132 10.96827,3.5738507 2.392018,1.5949411 3.960368,3.0269645 5.571522,5.0872245 2.749879,3.516404 4.455371,7.851791 4.820671,12.25423 0.197802,2.383852 0.196072,3.386708 -0.0083,4.808394 -0.470169,3.270814 -1.591887,6.319932 -3.341699,9.083629 -1.180894,1.865135 -1.801822,2.634264 -3.342226,4.139957 -3.434005,3.356608 -7.02451,5.230785 -11.912854,6.218285 -1.064717,0.215085 -1.405571,0.239452 -3.683783,0.263377 -1.380777,0.01449 -2.633747,0.009 -2.784377,-0.01221 z m 1.110377,-11.781876 c -0.01786,-0.01786 -1.478263,-0.02165 -3.245347,-0.0085 l -3.212881,0.02401 0.680392,1.369366 c 1.340891,2.698698 2.750392,4.676918 5.032402,7.062925 l 0.730549,0.763846 0.02367,-4.58961 c 0.01302,-2.524282 0.009,-4.604214 -0.0088,-4.622072 z m 5.097252,6.314626 c 1.259771,-1.621102 2.924533,-4.322341 3.58672,-5.819806 l 0.191755,-0.433628 h -3.235699 -3.235699 l 0.0041,4.587374 0.0041,4.587375 1.058606,-1.095494 c 0.582243,-0.602521 1.31401,-1.42414 1.62616,-1.825821 z m 2.248049,2.286725 c 0.916134,-0.277922 1.618956,-0.55981 3.320868,-1.331932 0.68744,-0.311877 2.360819,-1.407789 3.286477,-2.152346 1.431414,-1.15136 2.590737,-2.404797 3.989119,-4.312961 l 0.611344,-0.834213 H 40.201519 36.7565 l -0.299604,0.707506 c -0.393877,0.930129 -1.612031,3.194117 -2.313927,4.300518 -0.506149,0.797846 -1.480664,2.129074 -2.348514,3.208168 -0.544563,0.677121 -0.579916,0.730331 -0.485222,0.730331 0.04999,0 0.558268,-0.141783 1.129494,-0.315071 z M 21.289963,46.1399 c 0,-0.04406 -0.06161,-0.131248 -0.136921,-0.193746 -0.205655,-0.17068 -1.673875,-2.123389 -2.299474,-3.058262 -0.859374,-1.284223 -1.664667,-2.727658 -2.308273,-4.137433 L 15.95437,37.456077 h -3.451916 c -3.9415202,0 -3.5977138,-0.110596 -2.8442816,0.914928 0.4972536,0.676825 2.0380696,2.439559 2.5612166,2.930094 0.500906,0.46968 1.876495,1.520964 2.827344,2.160782 1.509918,1.016002 2.832797,1.644602 5.147738,2.446073 0.93039,0.32212 1.095492,0.357074 1.095492,0.231946 z M 15.264754,35.075636 c 0,-0.05399 -0.162646,-0.721552 -0.361436,-1.483476 -0.382244,-1.465069 -0.684471,-3.125342 -0.775648,-4.260988 -0.03023,-0.376576 -0.07836,-0.9209 -0.106944,-1.209608 L 13.96875,27.596639 H 9.9609054 5.953063 v 0.297258 c 0,0.670238 0.2844624,2.637459 0.5048513,3.491324 0.2520122,0.976387 0.3912979,1.384133 0.974531,2.852842 L 7.8040304,35.1738 h 3.7303606 c 2.600083,0 3.73036,-0.02973 3.73036,-0.09816 z m 19.664565,-0.0616 c 0.258707,-0.838483 0.813672,-3.056724 0.919287,-3.674465 0.269095,-1.573933 0.41309,-2.693315 0.41309,-3.211266 v -0.531668 h -4.381971 -4.38197 v 3.788582 3.788579 h 3.691135 c 3.435729,0 3.694547,-0.01107 3.740429,-0.159762 z m 10.208718,-0.593394 c 0.783246,-1.862952 1.317201,-3.913496 1.479799,-5.68287 0.03231,-0.351466 0.0808,-0.752009 0.107781,-0.890085 l 0.04906,-0.251053 h -4.008524 -4.008525 l -0.107659,1.209608 c -0.144896,1.628034 -0.405924,3.118507 -0.840184,4.797484 -0.198718,0.768291 -0.361302,1.435859 -0.361302,1.48348 0,0.05315 1.423211,0.08659 3.686457,0.08659 h 3.686453 z m -20.01385,-3.17236 V 27.41406 h -4.384834 c -3.809665,0 -4.391716,0.01793 -4.437284,0.136674 -0.137771,0.359028 0.376725,3.650864 0.849006,5.432077 0.179726,0.677837 0.370993,1.427567 0.425038,1.666064 l 0.09827,0.433633 h 3.724905 3.724904 z m -12.765212,-6.084577 1.505351,-0.05937 0.107779,-1.150763 c 0.128546,-1.372464 0.54521,-3.671465 0.926181,-5.110315 0.151347,-0.571609 0.275177,-1.054311 0.275177,-1.072669 0,-0.01837 -1.680486,-0.03338 -3.734413,-0.03338 H 7.7046334 l -0.2948529,0.707509 c -0.6931741,1.66326 -1.1304736,3.310396 -1.3675875,5.15112 -0.099116,0.769457 -0.1802559,1.450363 -0.1803153,1.513125 -1.176e-4,0.12922 3.7973869,0.16122 6.4970973,0.05475 z m 12.673922,-3.68459 v -3.743956 l -3.709613,0.02387 -3.709613,0.02387 -0.304473,1.186782 c -0.428982,1.672102 -0.948951,4.820568 -0.948951,5.746001 v 0.507438 h 4.336324 4.336326 z m 11.275732,3.650584 c 0.07301,-0.118135 -0.18766,-2.313609 -0.415415,-3.498786 -0.09502,-0.494494 -0.34874,-1.552326 -0.563808,-2.350747 l -0.391033,-1.451668 h -3.720309 -3.720309 v 3.697286 3.697291 h 4.376581 c 2.884379,0 4.396261,-0.03183 4.434293,-0.09338 z m 10.418603,-0.157674 c -0.02608,-0.138079 -0.07395,-0.579699 -0.106338,-0.98138 -0.122252,-1.516033 -0.648099,-3.56024 -1.415143,-5.501326 l -0.297206,-0.752112 h -3.730032 c -2.051518,0 -3.730034,0.01331 -3.730034,0.02955 0,0.01627 0.09892,0.360048 0.21982,0.763977 0.449355,1.501277 0.812261,3.719787 0.934214,5.710954 l 0.06011,0.98138 h 4.056029 4.056027 z M 25.124187,10.882708 V 6.3104862 l -0.342341,0.2744913 c -1.182411,0.9480682 -3.283916,3.5596425 -4.445472,5.5244685 -0.420297,0.710951 -1.450075,2.716191 -1.607445,3.130108 l -0.08188,0.215376 h 3.238573 3.238573 z m -8.86785,3.773429 c 0.391971,-0.925633 1.613229,-3.196707 2.295681,-4.269091 0.297097,-0.4668537 1.003865,-1.4521671 1.570594,-2.1895911 0.566728,-0.7374202 1.109216,-1.4444491 1.205529,-1.5711745 L 21.503255,6.395865 21.191204,6.4630043 C 19.625079,6.7999713 16.714322,8.1184808 14.945236,9.2922901 12.958768,10.610335 11.11493,12.446544 9.5609716,14.654274 L 9.061672,15.363639 h 3.447531 3.447531 z M 33.839216,15.0213 C 33.760755,14.83301 33.410048,14.131009 33.059863,13.461291 31.691296,10.843959 29.92099,8.4810323 27.931387,6.6160291 L 27.497755,6.2095526 v 4.5770424 4.577047 h 3.242057 3.242058 z m 9.725766,0.289593 c 0,-0.150742 -1.624976,-2.206012 -2.333351,-2.951223 C 38.797556,9.7990322 35.610494,7.8406982 32.314905,6.8806717 31.776498,6.7238314 31.263192,6.5682788 31.174222,6.534996 c -0.09233,-0.034528 0.0169,0.1524947 0.254481,0.4357278 1.91581,2.2840109 3.246285,4.3380372 4.564217,7.0463732 l 0.655254,1.346545 h 3.458405 c 1.902119,0 3.458403,-0.02372 3.458403,-0.05274 z"
     id="path157613" />
</svg>
