<?xml version="1.0" encoding="UTF-8" standalone="no"?>
<svg
   width="200"
   height="200"
   viewBox="0 0 52.916665 52.916668"
   version="1.1"
   id="svg1332"
   sodipodi:docname="notes_white.svg"
   inkscape:version="1.1.2 (0a00cf5339, 2022-02-04)"
   xmlns:inkscape="http://www.inkscape.org/namespaces/inkscape"
   xmlns:sodipodi="http://sodipodi.sourceforge.net/DTD/sodipodi-0.dtd"
   xmlns="http://www.w3.org/2000/svg"
   xmlns:svg="http://www.w3.org/2000/svg"
   xmlns:rdf="http://www.w3.org/1999/02/22-rdf-syntax-ns#"
   xmlns:cc="http://creativecommons.org/ns#"
   xmlns:dc="http://purl.org/dc/elements/1.1/">
  <sodipodi:namedview
     id="namedview7"
     pagecolor="#ffffff"
     bordercolor="#666666"
     borderopacity="1.0"
     inkscape:pageshadow="2"
     inkscape:pageopacity="0.0"
     inkscape:pagecheckerboard="0"
     showgrid="false"
     inkscape:zoom="2.8567114"
     inkscape:cx="133.54517"
     inkscape:cy="134.24527"
     inkscape:window-width="1850"
     inkscape:window-height="1016"
     inkscape:window-x="0"
     inkscape:window-y="0"
     inkscape:window-maximized="1"
     inkscape:current-layer="svg1332" />
  <defs
     id="defs1326" />
  <metadata
     id="metadata1329">
    <rdf:RDF>
      <cc:Work
         rdf:about="">
        <dc:format>image/svg+xml</dc:format>
        <dc:type
           rdf:resource="http://purl.org/dc/dcmitype/StillImage" />
      </cc:Work>
    </rdf:RDF>
  </metadata>
  <path
     style="fill:#ffffff;stroke-width:0.264583"
     d="m 15.462563,47.244581 c -0.58208,-0.206827 -1.49614,-0.86419 -2.03123,-1.460807 -1.12315,-1.252278 -1.54065,-2.761998 -1.54065,-5.571114 V 38.3736 H 9.7740226 c -1.7558,0 -2.20586,-0.08919 -2.63984,-0.523166 -0.5626,-0.562602 -0.48289,-1.230567 0.21384,-1.791939 0.24984,-0.201305 1.219,-0.330729 2.47657,-0.330729 h 2.0660904 v -3.96875 -3.96875 H 9.7740226 c -1.7558,0 -2.20586,-0.08919 -2.63984,-0.523166 -0.5626,-0.562602 -0.48289,-1.230566 0.21384,-1.791938 0.24984,-0.201305 1.219,-0.330729 2.47657,-0.330729 h 2.0660904 v -3.96875 -3.96875 H 9.7740226 c -1.7558,0 -2.20586,-0.08919 -2.63984,-0.523166 -0.5626,-0.562602 -0.48289,-1.230567 0.21384,-1.791939 0.24984,-0.201305 1.219,-0.330729 2.47657,-0.330729 h 2.0660904 v -1.83906 c 0,-2.966117 0.41912,-4.387422 1.68061,-5.69919 0.71853,-0.747167 1.48511,-1.244889 2.21994,-1.441358 0.78308,-0.209369 4.98257,-0.277182 13.89062,-0.224306 l 12.76821,0.07579 1.23374,0.725263 c 0.67856,0.398895 1.512,1.172802 1.85209,1.719792 l 0.61833,0.994529 V 26.46735 44.062141 l -0.61833,0.994529 c -0.34009,0.546989 -1.17353,1.320895 -1.85209,1.719792 l -1.23374,0.725262 -12.96459,0.05945 c -10.64572,0.04882 -13.15387,-0.0078 -14.02291,-0.316595 z M 22.474023,26.46735 V 7.946516 h -3.06011 c -1.68305,0 -3.28916,0.122592 -3.56913,0.272427 -0.93015,0.4978 -1.30826,1.677017 -1.30826,4.080059 v 2.262097 h 1.5686 c 1.66753,0 2.40015,0.403805 2.40015,1.322917 0,0.919112 -0.73262,1.322917 -2.40015,1.322917 h -1.5686 v 3.96875 3.96875 h 1.5686 c 1.66753,0 2.40015,0.403804 2.40015,1.322917 0,0.919112 -0.73262,1.322916 -2.40015,1.322916 h -1.5686 v 3.96875 3.96875 h 1.5686 c 1.66753,0 2.40015,0.403805 2.40015,1.322917 0,0.919112 -0.73262,1.322917 -2.40015,1.322917 h -1.5686 v 2.262097 c 0,2.35917 0.36765,3.548848 1.25676,4.066707 0.25467,0.148328 1.86201,0.273309 3.57188,0.277733 l 3.10886,0.008 z m 20.39327,17.747434 0.77339,-0.773395 V 26.46735 9.493311 l -0.77339,-0.773398 -0.7734,-0.773397 h -8.48702 -8.48702 V 26.46735 44.988183 h 8.48702 8.48702 z"
     id="path172964" />
</svg>
