<?xml version="1.0" encoding="UTF-8" standalone="no"?>
<svg
   width="200"
   height="200"
   viewBox="0 0 52.916665 52.916668"
   version="1.1"
   id="svg1332"
   sodipodi:docname="personal.svg"
   inkscape:version="1.1.2 (0a00cf5339, 2022-02-04)"
   xmlns:inkscape="http://www.inkscape.org/namespaces/inkscape"
   xmlns:sodipodi="http://sodipodi.sourceforge.net/DTD/sodipodi-0.dtd"
   xmlns="http://www.w3.org/2000/svg"
   xmlns:svg="http://www.w3.org/2000/svg"
   xmlns:rdf="http://www.w3.org/1999/02/22-rdf-syntax-ns#"
   xmlns:cc="http://creativecommons.org/ns#"
   xmlns:dc="http://purl.org/dc/elements/1.1/">
  <sodipodi:namedview
     id="namedview7"
     pagecolor="#ffffff"
     bordercolor="#666666"
     borderopacity="1.0"
     inkscape:pageshadow="2"
     inkscape:pageopacity="0.0"
     inkscape:pagecheckerboard="0"
     showgrid="false"
     inkscape:zoom="2.8567114"
     inkscape:cx="133.54517"
     inkscape:cy="130.04464"
     inkscape:window-width="1850"
     inkscape:window-height="1016"
     inkscape:window-x="0"
     inkscape:window-y="0"
     inkscape:window-maximized="1"
     inkscape:current-layer="svg1332" />
  <defs
     id="defs1326" />
  <metadata
     id="metadata1329">
    <rdf:RDF>
      <cc:Work
         rdf:about="">
        <dc:format>image/svg+xml</dc:format>
        <dc:type
           rdf:resource="http://purl.org/dc/dcmitype/StillImage" />
      </cc:Work>
    </rdf:RDF>
  </metadata>
  <path
     id="path173004-4"
     style="fill:#000000;stroke-width:0.264583"
     d="M 44.98404,5.2916667 V 22.489584 34.506937 l -2.64636,-2.63498 V 22.489068 7.9369847 H 30.43143 18.52519 15.87935 14.14199 c -2.00902,0 -2.60142,0.247031 -3.15484,1.31723 -0.34152,0.660432 -0.39946,2.7896693 -0.39946,14.6456193 v 13.872538 c 0.11062,2.338761 -0.2519,5.036894 0.925,6.567559 l 0.63821,0.63872 h 13.77073 13.77022 l 2.64635,5.16e-4 h 1.32292 1.32292 V 46.302084 47.625 L 28.77831,47.61311 C 15.57497,47.60411 12.3765,47.53253 11.51425,47.230189 h -5.2e-4 c -1.49058,-0.5227 -2.9357401,-2.221023 -3.2881701,-3.864364 -0.39543,-1.84382 -0.38832,-32.004468 0.008,-33.8521993 0.36757,-1.713899 1.9778601,-3.498429 3.5450101,-3.928959 0.71486,-0.196389 6.27472,-0.29097 17.13177,-0.29197 z m -24.0745,6.8802013 c 0.11224,0 5.1552,4.963174 11.20655,11.029302 l 11.00243,11.029299 0.93276,4.734078 c 0.51304,2.603725 0.93281,4.834266 0.93276,4.956287 -7e-5,0.140626 -1.8349,-0.145368 -5.01107,-0.780315 L 34.96191,42.139031 23.90832,31.084409 12.85525,20.029787 16.78007,16.100828 c 2.15876,-2.160884 4.01722,-3.92896 4.12947,-3.92896 z m -0.007,2.621029 -2.61069,2.616377 -2.6107,2.616896 1.40043,1.411282 c 0.77032,0.776275 1.44947,1.411283 1.50947,1.411283 0.06,0 1.26414,-1.157632 2.67581,-2.572452 l 2.56677,-2.572453 -1.46555,-1.455209 z m 4.33875,4.331002 -2.61896,2.618962 -2.61844,2.618959 7.05073,7.048667 7.05073,7.048664 v -1.157552 -1.157034 h 1.51102 1.5105 v -1.500684 -1.500167 l 1.01027,-0.06098 1.01028,-0.06098 -6.95306,-6.948929 z m -0.29094,3.531568 4.72116,4.724257 4.72116,4.72426 -0.58394,0.610298 c -0.32144,0.335495 -0.6364,0.609783 -0.6997,0.609783 -0.0633,0 -2.22405,-2.110161 -4.80178,-4.689637 l -4.68653,-4.690152 0.66456,-0.644406 z m 16.31374,12.481925 h -1.06144 -1.06143 v 1.510501 1.511019 h -1.5105 -1.51102 v 1.104326 c 0,0.97908 0.0513,1.116097 0.4532,1.210779 0.2493,0.05873 1.57617,0.332459 2.94866,0.608232 3.09153,0.621149 3.11658,0.621485 2.98224,0.04806 -0.0584,-0.249291 -0.36123,-1.699604 -0.67282,-3.223059 z" />
</svg>
