<?xml version="1.0" encoding="UTF-8" standalone="no"?>
<svg
   width="200"
   height="200"
   viewBox="0 0 52.916665 52.916668"
   version="1.1"
   id="svg1332"
   sodipodi:docname="settings_white.svg"
   inkscape:version="1.1.2 (0a00cf5339, 2022-02-04)"
   xmlns:inkscape="http://www.inkscape.org/namespaces/inkscape"
   xmlns:sodipodi="http://sodipodi.sourceforge.net/DTD/sodipodi-0.dtd"
   xmlns="http://www.w3.org/2000/svg"
   xmlns:svg="http://www.w3.org/2000/svg"
   xmlns:rdf="http://www.w3.org/1999/02/22-rdf-syntax-ns#"
   xmlns:cc="http://creativecommons.org/ns#"
   xmlns:dc="http://purl.org/dc/elements/1.1/">
  <sodipodi:namedview
     id="namedview7"
     pagecolor="#ffffff"
     bordercolor="#666666"
     borderopacity="1.0"
     inkscape:pageshadow="2"
     inkscape:pageopacity="0.0"
     inkscape:pagecheckerboard="0"
     showgrid="false"
     inkscape:zoom="2.8567114"
     inkscape:cx="122.34348"
     inkscape:cy="73.161048"
     inkscape:window-width="1920"
     inkscape:window-height="1043"
     inkscape:window-x="0"
     inkscape:window-y="0"
     inkscape:window-maximized="1"
     inkscape:current-layer="svg1332" />
  <defs
     id="defs1326" />
  <metadata
     id="metadata1329">
    <rdf:RDF>
      <cc:Work
         rdf:about="">
        <dc:format>image/svg+xml</dc:format>
        <dc:type
           rdf:resource="http://purl.org/dc/dcmitype/StillImage" />
      </cc:Work>
    </rdf:RDF>
  </metadata>
  <path
     id="path1099"
     style="color:#000000;fill:#ffffff;stroke:none;stroke-width:3.77953;-inkscape-stroke:none"
     d="M 100.00195 14.314453 C 52.72523 14.314453 14.314453 52.72523 14.314453 100.00195 C 14.314453 147.27868 52.72523 185.69141 100.00195 185.69141 C 147.27868 185.69141 185.69141 147.27868 185.69141 100.00195 C 185.69141 52.72523 147.27868 14.314453 100.00195 14.314453 z M 100.00195 22.316406 C 142.95517 22.316406 177.68945 57.048745 177.68945 100.00195 C 177.68945 122.79398 167.90866 143.27249 152.31055 157.47461 L 145.51367 162.99219 C 132.72884 172.2387 117.01083 177.68945 100.00195 177.68945 C 83.764871 177.68945 68.703813 172.72302 56.248047 164.22852 L 49.341797 158.92969 C 32.78841 144.69031 22.316406 123.58581 22.316406 100.00195 C 22.316406 57.048745 57.048745 22.316406 100.00195 22.316406 z M 84.335938 33.304688 L 82.826172 41.320312 C 80.77975 52.185513 80.06357 52.493864 71.126953 46.337891 L 64.449219 41.738281 L 53.462891 52.748047 C 47.420027 58.803375 42.474609 64.049753 42.474609 64.408203 C 42.474609 64.766657 44.392156 67.900074 46.734375 71.371094 C 50.351413 76.731348 50.86426 77.962943 50.142578 79.546875 C 49.520101 80.913053 48.325839 81.54576 45.675781 81.912109 C 43.686257 82.187146 40.088924 82.836797 37.681641 83.355469 L 33.304688 84.298828 L 33.304688 100 L 33.304688 115.70117 L 37.681641 116.64453 C 40.088924 117.1632 43.686257 117.81285 45.675781 118.08789 C 48.400386 118.46454 49.514745 119.07701 50.193359 120.56641 C 50.983662 122.30093 50.565648 123.30021 46.785156 128.71484 C 44.414731 132.1099 42.474609 135.1939 42.474609 135.56641 C 42.474609 135.93892 47.408873 141.18745 53.439453 147.23047 L 64.404297 158.21875 L 71.050781 153.76758 C 80.047372 147.74431 80.721757 148.0252 82.802734 158.66016 L 84.375 166.69531 L 100.07422 166.69531 L 115.77539 166.69531 L 116.5625 163.56836 C 116.99531 161.84887 117.59352 158.94154 117.89062 157.10742 C 118.72434 151.96066 119.16235 150.9209 120.88672 149.99805 C 122.19822 149.29615 123.72085 149.97039 129.36914 153.75195 L 136.25586 158.36133 L 147.37695 147.23828 L 158.5 136.11719 L 154.25977 129.62305 C 148.10322 120.19216 148.41902 119.16092 157.94141 117.57422 C 161.15112 117.03939 164.4339 116.40433 165.23633 116.16406 C 166.55881 115.76807 166.69531 114.25661 166.69531 100 C 166.69531 85.729082 166.56015 84.235352 165.23633 83.873047 C 164.4339 83.653434 161.15112 83.016526 157.94141 82.457031 C 148.41167 80.795857 148.10792 79.800638 154.25977 70.376953 L 158.5 63.882812 L 147.36133 52.746094 L 136.22461 41.607422 L 129.41602 46.265625 C 123.69884 50.177017 122.3412 50.781171 120.94727 50.035156 C 119.16184 49.079624 118.72843 48.064684 117.89062 42.892578 C 117.59352 41.058457 116.99531 38.151127 116.5625 36.431641 L 115.77539 33.304688 L 100.05664 33.304688 L 84.335938 33.304688 z M 90.978516 41.587891 L 100.22461 41.824219 L 109.4707 42.058594 L 110.84375 48.515625 C 111.59977 52.06699 112.37703 55.124896 112.57031 55.310547 C 112.76361 55.496212 115.29415 56.607642 118.19336 57.78125 L 123.46484 59.916016 L 129.2793 56.048828 L 135.09375 52.183594 L 141.30664 58.355469 C 144.72398 61.749999 147.51953 64.829468 147.51953 65.199219 C 147.51953 65.568989 145.8822 68.31458 143.87891 71.300781 L 140.23633 76.730469 L 142.5 82.320312 L 144.76367 87.908203 L 149.68555 88.957031 C 152.39229 89.533897 155.45073 90.198583 156.48242 90.433594 C 158.28763 90.84478 158.35742 91.205088 158.35742 100 C 158.35742 108.79492 158.28764 109.15522 156.48242 109.56641 C 155.45073 109.8014 152.42542 110.46485 149.75977 111.04102 L 144.91406 112.08789 L 142.59961 117.58008 L 140.28711 123.07227 L 143.9043 128.64844 C 145.89354 131.71444 147.51953 134.50353 147.51953 134.84766 C 147.51953 135.19178 144.72398 138.25001 141.30664 141.64453 L 135.09375 147.81641 L 129.2793 143.95117 L 123.46484 140.08398 L 118.19336 142.21875 C 115.29415 143.39236 112.76364 144.50376 112.57031 144.68945 C 112.37702 144.87512 111.59977 147.93301 110.84375 151.48438 L 109.4707 157.94141 L 100.22461 158.17578 L 90.978516 158.41211 L 90.136719 154.42578 C 89.672944 152.23313 89.044588 149.09138 88.742188 147.44531 C 88.2327 144.67209 87.784452 144.29099 82.632812 142.25977 L 77.074219 140.06836 L 71.457031 143.79492 C 68.367449 145.84423 65.54251 147.51953 65.181641 147.51953 C 64.820775 147.51953 61.749995 144.72398 58.355469 141.30664 L 52.183594 135.09375 L 56.109375 129.1875 L 60.037109 123.28125 L 57.814453 117.58984 L 55.591797 111.89844 L 49.658203 110.8418 C 46.394993 110.26041 43.256755 109.60664 42.683594 109.38867 C 41.938815 109.10543 41.642578 106.42661 41.642578 100 C 41.642578 93.573393 41.938808 90.894566 42.683594 90.611328 C 43.256755 90.393359 46.394993 89.739589 49.658203 89.158203 L 55.591797 88.101562 L 57.814453 82.410156 L 60.037109 76.71875 L 56.109375 70.8125 L 52.183594 64.90625 L 58.355469 58.693359 C 61.749995 55.276024 64.820771 52.480469 65.181641 52.480469 C 65.54251 52.480469 68.371583 54.164473 71.466797 56.222656 L 77.09375 59.964844 L 82.652344 57.681641 C 87.732021 55.594729 88.254734 55.147545 88.75 52.480469 C 89.048008 50.875613 89.672944 47.76687 90.136719 45.574219 L 90.978516 41.587891 z M 100.05273 75.326172 C 90.595049 75.499876 81.480639 81.197154 77.292969 90.664062 C 74.982305 95.887672 74.973776 104.09421 77.273438 109.29297 C 80.43341 116.43659 85.926137 121.30367 93.748047 123.89453 C 101.23218 126.37353 112.95863 123.09313 118.2793 117.0332 C 123.24571 111.37678 124.57422 107.78291 124.57422 100 C 124.57422 94.258127 124.21907 92.246684 122.70312 89.394531 C 119.77956 83.894045 116.13268 80.257702 111.03906 77.765625 C 107.50713 76.037613 103.75357 75.258201 100.05273 75.326172 z M 100.41602 83.380859 C 102.4488 83.393386 104.504 83.792996 106.47656 84.617188 C 120.13031 90.322082 120.13031 109.67791 106.47656 115.38281 C 98.586304 118.67957 89.384817 115.1669 85.501953 107.375 C 84.304758 104.97254 83.326172 101.65406 83.326172 100 C 83.326172 98.345943 84.304758 95.027457 85.501953 92.625 C 88.414101 86.781086 94.317669 83.343278 100.41602 83.380859 z "
     transform="scale(0.26458333)" />
</svg>
